HIERARCHY
ROOT pelvis
{
	OFFSET 0.003123 -0.351407 0.012037
	CHANNELS 6 Xposition Yposition Zposition Zrotation Yrotation Xrotation 
	JOINT left_hip
	{
		OFFSET 0.058189 -0.092763 -0.026001
		CHANNELS 3 Zrotation Yrotation Xrotation
		JOINT left_knee
		{
			OFFSET 0.054695 -0.378753 -0.009396
			CHANNELS 3 Zrotation Yrotation Xrotation
			JOINT left_ankle
			{
				OFFSET -0.043453 -0.403059 -0.031876
				CHANNELS 3 Zrotation Yrotation Xrotation
				JOINT left_foot
				{
					OFFSET 0.047257 -0.057997 0.118216
					CHANNELS 3 Zrotation Yrotation Xrotation
					End Site
					{
						OFFSET 0.000000 0.000000 0.000000
					}
				}
			}
		}
	}
	JOINT right_hip
	{
		OFFSET -0.063267 -0.103908 -0.021250
		CHANNELS 3 Zrotation Yrotation Xrotation
		JOINT right_knee
		{
			OFFSET -0.044210 -0.362380 -0.016824
			CHANNELS 3 Zrotation Yrotation Xrotation
			JOINT right_ankle
			{
				OFFSET 0.015417 -0.410728 -0.020192
				CHANNELS 3 Zrotation Yrotation Xrotation
				JOINT right_foot
				{
					OFFSET -0.038812 -0.058328 0.119049
					CHANNELS 3 Zrotation Yrotation Xrotation
					End Site
					{
						OFFSET 0.000000 0.000000 0.000000
					}
				}
			}
		}
	}
	JOINT spine_1
	{
		OFFSET -0.002763 0.109891 -0.027618
		CHANNELS 3 Zrotation Yrotation Xrotation
		JOINT spine_2
		{
			OFFSET 0.009448 0.131853 -0.005940
			CHANNELS 3 Zrotation Yrotation Xrotation
			JOINT spine_3
			{
				OFFSET -0.011330 0.052235 0.028447
				CHANNELS 3 Zrotation Yrotation Xrotation
				JOINT neck
				{
					OFFSET -0.012164 0.165167 -0.031615
					CHANNELS 3 Zrotation Yrotation Xrotation
					JOINT head
					{
						OFFSET 0.024783 0.160452 0.020737
						CHANNELS 3 Zrotation Yrotation Xrotation
						End Site
						{
							OFFSET 0.000000 0.000000 0.000000
						}
					}
				}
				JOINT left_collar
				{
					OFFSET 0.046364 0.084944 -0.007220
					CHANNELS 3 Zrotation Yrotation Xrotation
					JOINT left_shoulder
					{
						OFFSET 0.119239 0.057728 -0.015461
						CHANNELS 3 Zrotation Yrotation Xrotation
						JOINT left_elbow
						{
							OFFSET 0.254123 -0.072151 -0.042459
							CHANNELS 3 Zrotation Yrotation Xrotation
							JOINT left_wrist
							{
								OFFSET 0.251987 0.023221 -0.002472
								CHANNELS 3 Zrotation Yrotation Xrotation
								JOINT left_index_1
								{
									OFFSET 0.101902 -0.008688 0.019351
									CHANNELS 3 Zrotation Yrotation Xrotation
									JOINT left_index_2
									{
										OFFSET 0.030149 -0.011154 0.001151
										CHANNELS 3 Zrotation Yrotation Xrotation
										JOINT left_index_3
										{
											OFFSET 0.006504 -0.021577 -0.002433
											CHANNELS 3 Zrotation Yrotation Xrotation
											End Site
											{
												OFFSET 0.000000 0.000000 0.000000
											}
										}
									}
								}
								JOINT left_middle_1
								{
									OFFSET 0.109398 -0.006328 -0.003981
									CHANNELS 3 Zrotation Yrotation Xrotation
									JOINT left_middle_2
									{
										OFFSET 0.026472 -0.015218 -0.004641
										CHANNELS 3 Zrotation Yrotation Xrotation
										JOINT left_middle_3
										{
											OFFSET 0.005022 -0.023347 -0.001911
											CHANNELS 3 Zrotation Yrotation Xrotation
											End Site
											{
												OFFSET 0.000000 0.000000 0.000000
											}
										}
									}
								}
								JOINT left_pinky_1
								{
									OFFSET 0.084047 -0.014539 -0.043750
									CHANNELS 3 Zrotation Yrotation Xrotation
									JOINT left_pinky_2
									{
										OFFSET 0.012124 -0.014448 -0.005375
										CHANNELS 3 Zrotation Yrotation Xrotation
										JOINT left_pinky_3
										{
											OFFSET 0.003798 -0.018853 0.000167
											CHANNELS 3 Zrotation Yrotation Xrotation
											End Site
											{
												OFFSET 0.000000 0.000000 0.000000
											}
										}
									}
								}
								JOINT left_ring_1
								{
									OFFSET 0.097444 -0.009268 -0.027345
									CHANNELS 3 Zrotation Yrotation Xrotation
									JOINT left_ring_2
									{
										OFFSET 0.023561 -0.016057 -0.001895
										CHANNELS 3 Zrotation Yrotation Xrotation
										JOINT left_ring_3
										{
											OFFSET 0.004257 -0.023548 0.000814
											CHANNELS 3 Zrotation Yrotation Xrotation
											End Site
											{
												OFFSET 0.000000 0.000000 0.000000
											}
										}
									}
								}
								JOINT left_thumb_1
								{
									OFFSET 0.040636 -0.017977 0.025611
									CHANNELS 3 Zrotation Yrotation Xrotation
									JOINT left_thumb_2
									{
										OFFSET 0.021637 -0.017639 0.011623
										CHANNELS 3 Zrotation Yrotation Xrotation
										JOINT left_thumb_3
										{
											OFFSET 0.024002 -0.008356 0.006548
											CHANNELS 3 Zrotation Yrotation Xrotation
											End Site
											{
												OFFSET 0.000000 0.000000 0.000000
											}
										}
									}
								}
							}
						}
					}
				}
				JOINT right_collar
				{
					OFFSET -0.047695 0.084339 -0.013400
					CHANNELS 3 Zrotation Yrotation Xrotation
					JOINT right_shoulder
					{
						OFFSET -0.102578 0.053524 -0.012669
						CHANNELS 3 Zrotation Yrotation Xrotation
						JOINT right_elbow
						{
							OFFSET -0.271150 -0.036492 -0.026467
							CHANNELS 3 Zrotation Yrotation Xrotation
							JOINT right_wrist
							{
								OFFSET -0.249267 -0.004533 -0.015325
								CHANNELS 3 Zrotation Yrotation Xrotation
								JOINT right_index_1
								{
									OFFSET -0.099881 -0.011783 0.019600
									CHANNELS 3 Zrotation Yrotation Xrotation
									JOINT right_index_2
									{
										OFFSET -0.030148 -0.011154 0.001151
										CHANNELS 3 Zrotation Yrotation Xrotation
										JOINT right_index_3
										{
											OFFSET -0.006505 -0.021577 -0.002432
											CHANNELS 3 Zrotation Yrotation Xrotation
											End Site
											{
												OFFSET 0.000000 0.000000 0.000000
											}
										}
									}
								}
								JOINT right_middle_1
								{
									OFFSET -0.107376 -0.009422 -0.003734
									CHANNELS 3 Zrotation Yrotation Xrotation
									JOINT right_middle_2
									{
										OFFSET -0.026472 -0.015218 -0.004641
										CHANNELS 3 Zrotation Yrotation Xrotation
										JOINT right_middle_3
										{
											OFFSET -0.005022 -0.023347 -0.001911
											CHANNELS 3 Zrotation Yrotation Xrotation
											End Site
											{
												OFFSET 0.000000 0.000000 0.000000
											}
										}
									}
								}
								JOINT right_pinky_1
								{
									OFFSET -0.082027 -0.017634 -0.043503
									CHANNELS 3 Zrotation Yrotation Xrotation
									JOINT right_pinky_2
									{
										OFFSET -0.012123 -0.014448 -0.005374
										CHANNELS 3 Zrotation Yrotation Xrotation
										JOINT right_pinky_3
										{
											OFFSET -0.003798 -0.018852 0.000167
											CHANNELS 3 Zrotation Yrotation Xrotation
											End Site
											{
												OFFSET 0.000000 0.000000 0.000000
											}
										}
									}
								}
								JOINT right_ring_1
								{
									OFFSET -0.095423 -0.012362 -0.027099
									CHANNELS 3 Zrotation Yrotation Xrotation
									JOINT right_ring_2
									{
										OFFSET -0.023561 -0.016057 -0.001895
										CHANNELS 3 Zrotation Yrotation Xrotation
										JOINT right_ring_3
										{
											OFFSET -0.004257 -0.023548 0.000816
											CHANNELS 3 Zrotation Yrotation Xrotation
											End Site
											{
												OFFSET 0.000000 0.000000 0.000000
											}
										}
									}
								}
								JOINT right_thumb_1
								{
									OFFSET -0.038613 -0.021074 0.025861
									CHANNELS 3 Zrotation Yrotation Xrotation
									JOINT right_thumb_2
									{
										OFFSET -0.021636 -0.017639 0.011623
										CHANNELS 3 Zrotation Yrotation Xrotation
										JOINT right_thumb_3
										{
											OFFSET -0.024004 -0.008353 0.006547
											CHANNELS 3 Zrotation Yrotation Xrotation
											End Site
											{
												OFFSET 0.000000 0.000000 0.000000
											}
										}
									}
								}
							}
						}
					}
				}
			}
		}
	}
}
MOTION
Frames: 5
Frame Time: 0.050000
0.000027 0.889607 0.000587 -5.165510 -0.670841 -19.407457 33.281891 1.759023 -12.021485 -4.833285 -2.954896 40.918545 1.145214 7.935785 8.420155 0.000000 0.000000 0.000000 -9.659711 0.311515 -4.127383 -10.458905 6.834646 43.302006 3.755488 5.587851 2.661679 0.000000 0.000000 0.000000 -1.031840 -1.950111 29.110198 -8.634950 -0.948377 -19.612802 6.620313 0.576404 16.331608 -7.446573 1.945380 -8.056544 0.000000 0.000000 0.000000 27.112926 4.826616 1.382756 -61.617779 -20.967157 -4.812521 124.122989 -60.266741 -81.549200 12.025657 12.345450 -31.471926 4.269202 3.691378 1.086640 13.236995 -1.828577 -15.575225 0.000000 0.000000 0.000000 -3.450694 -10.730934 -5.379863 12.652335 -0.970168 -12.529659 0.000000 0.000000 0.000000 11.801753 -14.721556 -21.387734 16.200114 0.655652 3.387977 0.000000 0.000000 0.000000 -3.341387 -11.131378 -6.876579 22.310481 1.237246 -10.634894 0.000000 0.000000 0.000000 29.208239 10.914567 -7.130055 -20.411877 -0.454314 5.421462 0.000000 0.000000 0.000000 -26.779215 -4.974316 1.011561 90.750967 -21.002965 -25.887796 105.798564 39.465759 44.373872 0.158080 -5.547519 28.007803 13.942155 -6.296598 1.467795 -13.905943 0.846279 6.656835 0.000000 0.000000 0.000000 13.359975 2.109244 -3.916298 -4.748457 -0.539779 8.200735 0.000000 0.000000 0.000000 -28.876565 14.369760 -3.892645 11.264357 -1.829782 0.453471 0.000000 0.000000 0.000000 -0.095390 4.030811 -2.154529 -1.929124 -0.145791 3.452251 0.000000 0.000000 0.000000 -7.195548 -12.185743 11.425872 8.160442 5.677921 1.430279 0.000000 0.000000 0.000000 
0.000027 0.889607 0.000587 -5.165510 -0.670841 -19.407457 33.281891 1.759023 -12.021485 -4.833285 -2.954896 40.918545 1.145214 7.935785 8.420155 0.000000 0.000000 0.000000 -9.659711 0.311515 -4.127383 -10.458905 6.834646 43.302006 3.755488 5.587851 2.661679 0.000000 0.000000 0.000000 -1.031840 -1.950111 29.110198 -8.634950 -0.948377 -19.612802 6.620313 0.576404 16.331608 -7.446573 1.945380 -8.056544 0.000000 0.000000 0.000000 27.112926 4.826616 1.382756 -61.617779 -20.967157 -4.812521 124.122989 -60.266741 -81.549200 12.025657 12.345450 -31.471926 4.269202 3.691378 1.086640 13.236995 -1.828577 -15.575225 0.000000 0.000000 0.000000 -3.450694 -10.730934 -5.379863 12.652335 -0.970168 -12.529659 0.000000 0.000000 0.000000 11.801753 -14.721556 -21.387734 16.200114 0.655652 3.387977 0.000000 0.000000 0.000000 -3.341387 -11.131378 -6.876579 22.310481 1.237246 -10.634894 0.000000 0.000000 0.000000 29.208239 10.914567 -7.130055 -20.411877 -0.454314 5.421462 0.000000 0.000000 0.000000 -26.779215 -4.974316 1.011561 90.750967 -21.002965 -25.887796 105.798564 39.465759 44.373872 0.158010 -5.547589 28.007862 13.942245 -6.296311 1.467697 -13.905915 0.846258 6.656882 0.000000 0.000000 0.000000 13.360045 2.109549 -3.916446 -4.748496 -0.539777 8.200802 0.000000 0.000000 0.000000 -28.876530 14.369967 -3.892957 11.264212 -1.829783 0.453601 0.000000 0.000000 0.000000 -0.095325 4.031099 -2.154695 -1.929246 -0.145774 3.452315 0.000000 0.000000 0.000000 -7.195454 -12.185591 11.425716 8.160421 5.677855 1.430289 0.000000 0.000000 0.000000 
-0.003389 0.884691 0.019066 -5.652293 1.787446 -19.060930 34.722556 1.537595 -13.112841 -6.557959 -2.660279 42.435269 1.982906 9.563817 8.719359 0.000000 0.000000 0.000000 -9.681398 0.201284 -3.015701 -12.312480 7.189667 43.198965 4.776420 7.499994 2.902801 0.000000 0.000000 0.000000 -2.287727 -1.996918 31.707314 -8.857871 -0.696356 -19.470081 6.889634 1.067405 12.352798 -8.523316 1.902664 -7.068223 0.000000 0.000000 0.000000 29.470305 5.920542 2.002538 -66.463675 -17.163663 -6.610933 135.731688 -60.330560 -95.242602 11.636201 11.290363 -31.431824 3.964091 2.367199 0.694420 15.388005 -1.339025 -14.484817 0.000000 0.000000 0.000000 -4.571484 -10.474307 -5.254846 17.217384 -0.544015 -12.567809 0.000000 0.000000 0.000000 12.277559 -14.434640 -20.985836 16.313612 0.776375 4.186943 0.000000 0.000000 0.000000 -1.371919 -11.164576 -7.274057 22.166309 1.374595 -9.797736 0.000000 0.000000 0.000000 28.646314 11.465521 -6.406561 -20.364205 -2.699844 4.806689 0.000000 0.000000 0.000000 -32.206763 -4.854890 1.516575 97.920228 -23.050161 -29.119474 110.848045 33.640775 38.636646 -1.949674 -6.137102 34.362450 14.899046 -7.523668 1.405377 -21.435576 2.657852 7.120597 0.000000 0.000000 0.000000 11.411515 1.135925 -3.140537 -8.189913 0.272286 10.492163 0.000000 0.000000 0.000000 -35.279129 14.278327 -3.877542 9.619796 -2.877089 3.700585 0.000000 0.000000 0.000000 -4.288668 3.693836 -1.698875 -1.154554 -0.695774 7.616983 0.000000 0.000000 0.000000 -6.761933 -14.308846 13.820771 9.099627 7.072942 1.435254 0.000000 0.000000 0.000000 
-0.006804 0.879856 0.038864 -6.255373 5.046568 -18.584223 35.970271 1.181385 -14.886165 -7.765846 -2.717353 43.992282 2.345784 10.475674 9.054870 0.000000 0.000000 0.000000 -9.785852 0.056276 -1.513353 -13.740097 7.143374 42.934742 5.399899 8.890477 2.835118 0.000000 0.000000 0.000000 -3.453411 -2.080995 33.766963 -8.900269 -0.566887 -19.658499 7.093133 1.690557 8.944499 -9.561796 1.856049 -6.276170 0.000000 0.000000 0.000000 31.890691 6.016610 2.970045 -70.969207 -13.482657 -9.107108 146.587449 -59.162122 -107.812165 11.002165 9.903719 -30.666708 5.855994 1.474015 0.451381 16.466339 -1.411318 -14.505766 0.000000 0.000000 0.000000 -1.852625 -11.323422 -5.794514 17.494751 -0.536379 -12.120353 0.000000 0.000000 0.000000 13.316464 -14.256545 -20.724758 18.543028 0.505490 3.247369 0.000000 0.000000 0.000000 -0.773491 -11.458781 -7.615385 25.429307 1.794618 -9.576535 0.000000 0.000000 0.000000 29.102060 12.224094 -5.923410 -20.664814 -3.203728 4.772324 0.000000 0.000000 0.000000 -37.518659 -4.490480 1.951668 106.090331 -25.177144 -33.170957 114.413425 27.911110 30.300552 -4.121341 -6.022196 41.641856 15.187430 -8.277551 1.215213 -22.320072 1.983421 11.021811 0.000000 0.000000 0.000000 10.080761 0.001652 -2.402101 -8.185032 -0.177991 14.107831 0.000000 0.000000 0.000000 -39.637006 13.109766 -3.909288 9.217314 -4.573622 6.837598 0.000000 0.000000 0.000000 -7.332846 2.706291 -1.146031 -1.609035 -1.154896 10.277582 0.000000 0.000000 0.000000 -5.783730 -16.819125 16.198139 8.639992 8.326833 0.942532 0.000000 0.000000 0.000000 
-0.010220 0.875021 0.058662 -6.699216 7.926808 -18.346838 37.494975 0.798665 -16.153127 -9.553528 -2.440659 45.579121 3.254304 12.092318 9.224333 0.000000 0.000000 0.000000 -9.964496 -0.087691 0.082065 -15.274838 7.178927 42.483339 6.102793 10.577851 2.573323 0.000000 0.000000 0.000000 -4.788548 -2.132504 35.790681 -9.009971 -0.347732 -19.518291 7.396788 2.550703 5.639365 -10.687427 1.833671 -6.087219 0.000000 0.000000 0.000000 34.498829 6.232769 3.949844 -75.561966 -9.474505 -12.154039 156.267646 -57.070551 -119.092219 11.717708 8.639460 -30.735515 3.802334 2.737322 0.789204 21.164324 -1.226795 -16.417469 0.000000 0.000000 0.000000 -3.339133 -10.218472 -5.253684 19.246145 -0.278405 -10.719365 0.000000 0.000000 0.000000 15.269729 -14.088945 -20.461754 15.749972 0.887784 4.479634 0.000000 0.000000 0.000000 0.142163 -11.102355 -7.504607 23.274251 1.754440 -7.943421 0.000000 0.000000 0.000000 29.054286 12.870832 -5.223060 -21.080733 -3.805893 4.804306 0.000000 0.000000 0.000000 -42.713312 -3.966887 2.461959 114.464271 -26.788768 -37.962322 117.074040 21.781750 19.387309 -5.964586 -5.446190 48.920302 16.715131 -10.715733 1.067861 -27.634379 2.937614 12.181462 0.000000 0.000000 0.000000 8.339323 -1.196795 -1.508586 -10.174698 -0.086185 17.679557 0.000000 0.000000 0.000000 -47.526600 11.674569 -6.156146 10.794968 -8.833148 12.616835 0.000000 0.000000 0.000000 -10.831051 1.655173 -0.901815 -0.825429 -3.411752 15.443568 0.000000 0.000000 0.000000 -4.474204 -20.569244 18.827509 7.673345 10.140812 -0.037013 0.000000 0.000000 0.000000 
